<svg width="260" height="260" viewBox="0 0 260 260" fill="none" xmlns="http://www.w3.org/2000/svg">
<g clip-path="url(#clip0_16815_2)">
<rect width="260" height="260" rx="40" fill="black"/>
<path d="M78.07 203.65C75.98 203.65 73.615 203.045 70.975 201.835C68.445 200.515 65.585 197.435 62.395 192.595C61.185 190.725 59.59 187.92 57.61 184.18C55.63 180.44 53.43 176.15 51.01 171.31C48.59 166.36 46.115 161.3 43.585 156.13C41.165 150.96 38.8 146.065 36.49 141.445C34.07 142.215 31.65 142.93 29.23 143.59C26.92 144.25 24.665 144.855 22.465 145.405C20.925 156.735 20.155 166.47 20.155 174.61C20.155 178.9 20.485 183.025 21.145 186.985C21.915 190.835 23.675 194.245 26.425 197.215C24.335 199.635 22.245 201.23 20.155 202C18.065 202.77 16.36 203.155 15.04 203.155C11.19 203.155 8.055 201.615 5.635 198.535C3.325 195.455 2.17 189.735 2.17 181.375C2.17 177.415 2.555 172.135 3.325 165.535C4.205 158.935 5.25 151.62 6.46 143.59C7.78 135.56 9.045 127.42 10.255 119.17C11.575 110.81 12.62 102.89 13.39 95.41C14.27 87.82 14.71 81.275 14.71 75.775C14.71 73.465 14.435 70.715 13.885 67.525C13.445 64.225 12.895 61.53 12.235 59.44C18.065 58.34 24.115 57.405 30.385 56.635C36.765 55.755 42.98 55.315 49.03 55.315C56.62 55.315 63.605 56.25 69.985 58.12C76.475 59.99 81.645 63.29 85.495 68.02C89.345 72.64 91.27 79.24 91.27 87.82C91.27 95.63 89.345 102.56 85.495 108.61C81.645 114.66 76.64 119.94 70.48 124.45C64.43 128.85 57.94 132.645 51.01 135.835C54.42 142.435 57.555 148.815 60.415 154.975C63.385 161.135 66.355 166.745 69.325 171.805C72.405 176.755 75.705 180.825 79.225 184.015C82.745 187.205 86.705 189.13 91.105 189.79C90.555 193.64 89.455 196.61 87.805 198.7C86.155 200.68 84.395 202 82.525 202.66C80.655 203.32 79.17 203.65 78.07 203.65ZM24.115 134.02C30.165 132.81 36.105 131.105 41.935 128.905C47.875 126.595 53.265 123.735 58.105 120.325C62.945 116.915 66.795 112.79 69.655 107.95C72.515 103.11 73.945 97.5 73.945 91.12C73.945 84.85 72.625 79.845 69.985 76.105C67.455 72.255 63.99 69.505 59.59 67.855C55.3 66.205 50.46 65.38 45.07 65.38C41.22 65.38 37.315 65.71 33.355 66.37C33.355 71.21 32.86 77.315 31.87 84.685C30.88 91.945 29.67 99.865 28.24 108.445C26.81 116.915 25.435 125.44 24.115 134.02ZM140.654 203.155C135.814 203.155 132.074 202.165 129.434 200.185C126.794 198.205 124.539 193.97 122.669 187.48C121.569 183.41 120.689 178.185 120.029 171.805C119.479 165.425 118.984 158.385 118.544 150.685C118.104 142.985 117.609 135.065 117.059 126.925C116.619 118.785 115.959 110.865 115.079 103.165C114.199 95.465 112.989 88.535 111.449 82.375C110.349 78.085 108.699 74.29 106.499 70.99C104.299 67.58 101.439 64.335 97.919 61.255C99.129 59.165 100.889 57.68 103.199 56.8C105.619 55.81 107.599 55.315 109.139 55.315C112.329 55.315 115.134 55.865 117.554 56.965C120.084 57.955 122.284 59.935 124.154 62.905C126.134 65.765 127.894 70 129.434 75.61C130.534 79.46 131.359 84.465 131.909 90.625C132.569 96.785 133.119 103.605 133.559 111.085C133.999 118.455 134.439 126.045 134.879 133.855C135.429 141.665 136.089 149.2 136.859 156.46C137.629 163.72 138.729 170.21 140.159 175.93C142.359 170.32 144.944 164.215 147.914 157.615C150.884 150.905 153.964 143.975 157.154 136.825C160.344 129.675 163.424 122.58 166.394 115.54C169.474 108.5 172.114 101.845 174.314 95.575C173.544 91.395 172.499 87.435 171.179 83.695C169.859 79.845 168.044 77.315 165.734 76.105C167.164 73.795 169.199 71.87 171.839 70.33C174.589 68.79 177.339 68.02 180.089 68.02C182.289 68.02 184.214 68.625 185.864 69.835C187.624 70.935 188.889 72.86 189.659 75.61C190.649 79.46 191.419 84.465 191.969 90.625C192.629 96.675 193.179 103.44 193.619 110.92C194.059 118.4 194.499 126.045 194.939 133.855C195.489 141.665 196.149 149.2 196.919 156.46C197.799 163.61 198.899 170.045 200.219 175.765C202.749 169.385 205.719 162.4 209.129 154.81C212.649 147.11 216.224 139.19 219.854 131.05C223.594 122.91 227.004 114.99 230.084 107.29C233.274 99.48 235.859 92.33 237.839 85.84C239.819 79.24 240.809 73.74 240.809 69.34C240.809 67.8 240.644 66.37 240.314 65.05C240.094 63.73 239.599 62.465 238.829 61.255C240.369 58.945 242.239 57.405 244.439 56.635C246.749 55.755 248.619 55.315 250.049 55.315C252.359 55.315 254.174 55.975 255.494 57.295C256.924 58.505 257.639 60.65 257.639 63.73C257.639 67.14 256.759 71.54 254.999 76.93C253.349 82.32 251.149 88.37 248.399 95.08C245.649 101.79 242.624 108.885 239.324 116.365C236.024 123.735 232.669 131.215 229.259 138.805C225.959 146.395 222.934 153.71 220.184 160.75C217.434 167.79 215.179 174.28 213.419 180.22C211.769 186.16 210.944 191.22 210.944 195.4C210.944 196.83 211.109 198.15 211.439 199.36C210.339 200.46 208.689 201.34 206.489 202C204.289 202.77 202.419 203.155 200.879 203.155C197.579 203.155 194.829 202.77 192.629 202C190.429 201.12 188.559 199.58 187.019 197.38C185.479 195.07 184.104 191.77 182.894 187.48C181.684 183.08 180.749 177.305 180.089 170.155C179.539 163.005 179.044 155.14 178.604 146.56C178.274 137.98 177.779 129.345 177.119 120.655C174.039 127.695 170.904 134.845 167.714 142.105C164.634 149.255 161.829 156.13 159.299 162.73C156.769 169.33 154.734 175.435 153.194 181.045C151.654 186.655 150.884 191.44 150.884 195.4C150.884 196.17 150.884 196.885 150.884 197.545C150.994 198.205 151.104 198.81 151.214 199.36C150.224 200.46 148.684 201.34 146.594 202C144.614 202.77 142.634 203.155 140.654 203.155Z" fill="white"/>
</g>
<defs>
<clipPath id="clip0_16815_2">
<rect width="260" height="260" rx="40" fill="white"/>
</clipPath>
</defs>
</svg>
