<svg width="140" height="30" viewBox="0 0 140 30" fill="none" xmlns="http://www.w3.org/2000/svg">
<g clip-path="url(#clip0_16824_25)">
<rect width="140" height="30" fill="#252525"/>
<g clip-path="url(#clip1_16824_25)">
<path d="M14.508 26.26C14.1787 26.26 13.806 26.1647 13.39 25.974C12.9913 25.766 12.5407 25.2807 12.038 24.518C11.8473 24.2233 11.596 23.7813 11.284 23.192C10.972 22.6027 10.6253 21.9267 10.244 21.164C9.86267 20.384 9.47267 19.5867 9.074 18.772C8.69267 17.9573 8.32 17.186 7.956 16.458C7.57467 16.5793 7.19333 16.692 6.812 16.796C6.448 16.9 6.09267 16.9953 5.746 17.082C5.50333 18.8673 5.382 20.4013 5.382 21.684C5.382 22.36 5.434 23.01 5.538 23.634C5.65933 24.2407 5.93667 24.778 6.37 25.246C6.04067 25.6273 5.71133 25.8787 5.382 26C5.05267 26.1213 4.784 26.182 4.576 26.182C3.96933 26.182 3.47533 25.9393 3.094 25.454C2.73 24.9687 2.548 24.0673 2.548 22.75C2.548 22.126 2.60867 21.294 2.73 20.254C2.86867 19.214 3.03333 18.0613 3.224 16.796C3.432 15.5307 3.63133 14.248 3.822 12.948C4.03 11.6307 4.19467 10.3827 4.316 9.204C4.45467 8.008 4.524 6.97667 4.524 6.11C4.524 5.746 4.48067 5.31267 4.394 4.81C4.32467 4.29 4.238 3.86533 4.134 3.536C5.05267 3.36267 6.006 3.21533 6.994 3.094C7.99933 2.95533 8.97867 2.886 9.932 2.886C11.128 2.886 12.2287 3.03333 13.234 3.328C14.2567 3.62267 15.0713 4.14267 15.678 4.888C16.2847 5.616 16.588 6.656 16.588 8.008C16.588 9.23867 16.2847 10.3307 15.678 11.284C15.0713 12.2373 14.2827 13.0693 13.312 13.78C12.3587 14.4733 11.336 15.0713 10.244 15.574C10.7813 16.614 11.2753 17.6193 11.726 18.59C12.194 19.5607 12.662 20.4447 13.13 21.242C13.6153 22.022 14.1353 22.6633 14.69 23.166C15.2447 23.6687 15.8687 23.972 16.562 24.076C16.4753 24.6827 16.302 25.1507 16.042 25.48C15.782 25.792 15.5047 26 15.21 26.104C14.9153 26.208 14.6813 26.26 14.508 26.26ZM6.006 15.288C6.95933 15.0973 7.89533 14.8287 8.814 14.482C9.75 14.118 10.5993 13.6673 11.362 13.13C12.1247 12.5927 12.7313 11.9427 13.182 11.18C13.6327 10.4173 13.858 9.53333 13.858 8.528C13.858 7.54 13.65 6.75133 13.234 6.162C12.8353 5.55533 12.2893 5.122 11.596 4.862C10.92 4.602 10.1573 4.472 9.308 4.472C8.70133 4.472 8.086 4.524 7.462 4.628C7.462 5.39067 7.384 6.35267 7.228 7.514C7.072 8.658 6.88133 9.906 6.656 11.258C6.43067 12.5927 6.214 13.936 6.006 15.288ZM22.6017 26.364C21.4231 26.364 20.4871 25.7833 19.7937 24.622C19.1177 23.4607 18.7797 21.866 18.7797 19.838C18.7797 18.2087 18.9704 16.692 19.3517 15.288C19.7504 13.8667 20.2964 12.6273 20.9897 11.57C21.6831 10.5127 22.4891 9.68933 23.4077 9.1C24.3264 8.51067 25.3231 8.216 26.3977 8.216C27.8711 8.216 29.0931 8.79667 30.0637 9.958C30.2024 9.42067 30.3757 9.03933 30.5837 8.814C30.8091 8.58867 31.1124 8.476 31.4937 8.476C32.0311 8.476 32.4991 8.70133 32.8977 9.152C32.7417 9.568 32.5944 10.1487 32.4557 10.894C32.3171 11.622 32.1957 12.4453 32.0917 13.364C31.9877 14.2653 31.9011 15.21 31.8317 16.198C31.7797 17.1687 31.7537 18.1047 31.7537 19.006C31.7537 20.566 31.8404 21.814 32.0137 22.75C32.2044 23.6687 32.5164 24.492 32.9497 25.22C32.4471 25.8613 31.8577 26.182 31.1817 26.182C30.4537 26.182 29.8991 25.714 29.5177 24.778C29.1364 23.842 28.9457 22.4813 28.9457 20.696C28.9457 20.436 28.9544 20.124 28.9717 19.76C29.0064 19.3787 29.0411 18.9973 29.0757 18.616C29.1104 18.2173 29.1364 17.8793 29.1537 17.602C28.5644 19.266 27.8797 20.7653 27.0997 22.1C26.3371 23.4173 25.5571 24.4573 24.7597 25.22C23.9797 25.9827 23.2604 26.364 22.6017 26.364ZM23.4857 23.608C23.8844 23.608 24.3351 23.348 24.8377 22.828C25.3404 22.2907 25.8604 21.58 26.3977 20.696C26.9524 19.812 27.4637 18.8327 27.9317 17.758C28.4171 16.6833 28.8331 15.5913 29.1797 14.482C29.5264 13.3727 29.7517 12.3327 29.8557 11.362C28.6771 10.4607 27.5591 10.01 26.5017 10.01C25.5311 10.01 24.6644 10.4 23.9017 11.18C23.1564 11.96 22.5671 13.0433 22.1337 14.43C21.7177 15.7993 21.5097 17.3853 21.5097 19.188C21.5097 20.5573 21.6831 21.6407 22.0297 22.438C22.3937 23.218 22.8791 23.608 23.4857 23.608ZM40.2953 26.416C39.4633 26.416 38.822 26.208 38.3713 25.792C37.9207 25.3587 37.6087 24.804 37.4353 24.128C37.2793 23.452 37.2013 22.75 37.2013 22.022C37.2013 20.9993 37.2793 20.0027 37.4353 19.032C37.6087 18.0613 37.7733 17.0473 37.9293 15.99C38.0853 14.9327 38.1633 13.754 38.1633 12.454C38.1633 11.8993 38.1373 11.3273 38.0853 10.738C38.0333 10.1313 37.8773 9.58533 37.6173 9.1C37.808 8.90933 38.0767 8.762 38.4233 8.658C38.7873 8.554 39.0993 8.502 39.3593 8.502C39.81 8.502 40.2087 8.64933 40.5553 8.944C40.9193 9.23867 41.1013 9.75 41.1013 10.478C41.1013 10.9113 41.0407 11.5787 40.9193 12.48C40.798 13.364 40.6507 14.3607 40.4773 15.47C40.3213 16.5793 40.1827 17.6973 40.0613 18.824C39.94 19.9507 39.8793 20.9733 39.8793 21.892C39.8793 22.4813 39.9747 22.9667 40.1653 23.348C40.356 23.7293 40.6767 23.92 41.1273 23.92C41.4913 23.92 41.89 23.6947 42.3233 23.244C42.774 22.776 43.2247 22.1607 43.6753 21.398C44.1433 20.6353 44.5853 19.7947 45.0013 18.876C45.4173 17.94 45.79 16.9953 46.1193 16.042C46.466 15.0887 46.7347 14.1873 46.9253 13.338C47.116 12.4887 47.2113 11.778 47.2113 11.206C47.2113 10.3913 47.0813 9.68933 46.8213 9.1C47.0293 8.90933 47.3067 8.762 47.6533 8.658C48.0173 8.554 48.3207 8.502 48.5633 8.502C49.014 8.502 49.4213 8.64933 49.7853 8.944C50.1493 9.23867 50.3313 9.75 50.3313 10.478C50.3313 11.3967 50.2447 12.3587 50.0713 13.364C49.9153 14.3693 49.7507 15.3573 49.5773 16.328C49.4213 17.2987 49.3433 18.1913 49.3433 19.006C49.3433 20.3927 49.4213 21.5713 49.5773 22.542C49.7507 23.5127 50.08 24.4053 50.5653 25.22C50.288 25.5493 49.9933 25.792 49.6813 25.948C49.3867 26.104 49.092 26.182 48.7973 26.182C48.052 26.182 47.4887 25.7053 47.1073 24.752C46.7433 23.7813 46.5613 22.4293 46.5613 20.696C46.5613 20.0893 46.596 19.4913 46.6653 18.902C46.752 18.3127 46.8213 17.7753 46.8733 17.29C46.4227 18.3473 45.946 19.4133 45.4433 20.488C44.9407 21.5453 44.412 22.5247 43.8573 23.426C43.3027 24.3273 42.722 25.0553 42.1153 25.61C41.526 26.1473 40.9193 26.416 40.2953 26.416ZM58.411 26.338C57.5444 26.338 56.7384 26.2253 55.993 26C55.265 25.7747 54.6757 25.4367 54.225 24.986C53.7744 24.518 53.549 23.9373 53.549 23.244C53.549 22.7587 53.6704 22.334 53.913 21.97C54.173 21.606 54.4677 21.2593 54.797 20.93C55.0224 21.814 55.3517 22.5333 55.785 23.088C56.2357 23.6253 56.7297 24.024 57.267 24.284C57.8217 24.5267 58.3677 24.648 58.905 24.648C59.6677 24.648 60.3264 24.4487 60.881 24.05C61.4357 23.634 61.713 23.0793 61.713 22.386C61.713 21.7273 61.5397 21.1553 61.193 20.67C60.8464 20.1673 60.335 19.6473 59.659 19.11C58.983 18.5553 58.151 17.888 57.163 17.108C56.5217 16.6053 56.0017 16.0247 55.603 15.366C55.2044 14.7073 55.005 13.8927 55.005 12.922C55.005 11.414 55.5424 10.2527 56.617 9.438C57.709 8.62333 59.1824 8.216 61.037 8.216C62.0597 8.216 62.9004 8.38933 63.559 8.736C64.2177 9.08267 64.547 9.71533 64.547 10.634C64.547 11.0847 64.4084 11.5007 64.131 11.882C63.8537 12.246 63.5937 12.5233 63.351 12.714C63.0564 11.9687 62.6317 11.336 62.077 10.816C61.5397 10.296 60.7857 10.036 59.815 10.036C59.0697 10.036 58.4804 10.2267 58.047 10.608C57.631 10.9893 57.423 11.4573 57.423 12.012C57.423 12.428 57.4924 12.8007 57.631 13.13C57.7697 13.4593 58.0124 13.806 58.359 14.17C58.723 14.5167 59.2084 14.9413 59.815 15.444C60.4217 15.9467 61.193 16.5793 62.129 17.342C62.7877 17.8793 63.299 18.4687 63.663 19.11C64.027 19.734 64.209 20.4793 64.209 21.346C64.209 22.8193 63.715 24.024 62.727 24.96C61.739 25.8787 60.3004 26.338 58.411 26.338ZM69.6853 26.182C68.9919 26.182 68.5413 25.9393 68.3333 25.454C68.1253 24.9687 68.0213 24.3447 68.0213 23.582C68.0213 22.6113 68.1253 21.4413 68.3333 20.072C68.5586 18.7027 68.8099 17.2207 69.0873 15.626C69.3646 14.0313 69.6073 12.3847 69.8153 10.686C70.0406 8.98733 70.1533 7.332 70.1533 5.72C70.1533 5.096 70.1273 4.48933 70.0753 3.9C70.0233 3.29333 69.8673 2.73 69.6073 2.21C69.7979 2.03667 70.0666 1.898 70.4133 1.794C70.7773 1.69 71.0806 1.638 71.3233 1.638C71.9126 1.638 72.3546 1.83733 72.6493 2.236C72.9613 2.63467 73.1173 3.34533 73.1173 4.368C73.1173 5.16533 73.0393 6.09267 72.8833 7.15C72.7446 8.20733 72.5713 9.334 72.3633 10.53C72.1553 11.7087 71.9473 12.896 71.7393 14.092C71.5313 15.2707 71.3579 16.38 71.2193 17.42C71.6699 16.38 72.1379 15.3227 72.6233 14.248C73.1259 13.1733 73.6546 12.194 74.2093 11.31C74.7639 10.4087 75.3359 9.68933 75.9253 9.152C76.5319 8.59733 77.1473 8.32 77.7713 8.32C78.6033 8.32 79.2359 8.54533 79.6693 8.996C80.1026 9.42933 80.3973 9.99267 80.5533 10.686C80.7093 11.3793 80.7873 12.09 80.7873 12.818C80.7873 14.1007 80.6833 15.3487 80.4753 16.562C80.2846 17.758 80.1893 18.9973 80.1893 20.28C80.1893 20.7827 80.2153 21.3547 80.2673 21.996C80.3366 22.6373 80.4493 23.2527 80.6053 23.842C80.7786 24.414 81.0213 24.882 81.3333 25.246C81.0213 25.5753 80.7093 25.818 80.3973 25.974C80.1026 26.1127 79.8079 26.182 79.5133 26.182C78.8026 26.182 78.2653 25.7487 77.9013 24.882C77.5373 23.998 77.3553 22.75 77.3553 21.138C77.3553 20.0287 77.4246 18.954 77.5633 17.914C77.7193 16.874 77.8666 15.9293 78.0053 15.08C78.1439 14.2133 78.2133 13.5113 78.2133 12.974C78.2133 12.35 78.1179 11.882 77.9273 11.57C77.7366 11.2407 77.3639 11.076 76.8093 11.076C76.4453 11.076 76.0379 11.3013 75.5873 11.752C75.1539 12.1853 74.7119 12.7747 74.2613 13.52C73.8279 14.2653 73.4033 15.0973 72.9873 16.016C72.5886 16.9173 72.2246 17.836 71.8953 18.772C71.5833 19.708 71.3319 20.592 71.1413 21.424C70.9506 22.2387 70.8553 22.9407 70.8553 23.53C70.8553 24.0673 70.8986 24.544 70.9853 24.96C71.0893 25.376 71.1933 25.662 71.2973 25.818C70.9853 25.9393 70.6906 26.026 70.4133 26.078C70.1533 26.1473 69.9106 26.182 69.6853 26.182ZM90.4869 26.182C89.7242 26.182 89.1349 26.026 88.7189 25.714C88.3029 25.402 87.9476 24.7347 87.6529 23.712C87.4796 23.0707 87.3409 22.2473 87.2369 21.242C87.1502 20.2367 87.0722 19.1273 87.0029 17.914C86.9336 16.7007 86.8556 15.4527 86.7689 14.17C86.6996 12.8873 86.5956 11.6393 86.4569 10.426C86.3182 9.21267 86.1276 8.12067 85.8849 7.15C85.7116 6.474 85.4516 5.876 85.1049 5.356C84.7582 4.81867 84.3076 4.30733 83.7529 3.822C83.9436 3.49267 84.2209 3.25867 84.5849 3.12C84.9662 2.964 85.2782 2.886 85.5209 2.886C86.0236 2.886 86.4656 2.97267 86.8469 3.146C87.2456 3.302 87.5922 3.614 87.8869 4.082C88.1989 4.53267 88.4762 5.2 88.7189 6.084C88.8922 6.69067 89.0222 7.47933 89.1089 8.45C89.2129 9.42067 89.2996 10.4953 89.3689 11.674C89.4382 12.8353 89.5076 14.0313 89.5769 15.262C89.6636 16.4927 89.7676 17.68 89.8889 18.824C90.0102 19.968 90.1836 20.9907 90.4089 21.892C90.7556 21.008 91.1629 20.046 91.6309 19.006C92.0989 17.9487 92.5842 16.8567 93.0869 15.73C93.5896 14.6033 94.0749 13.4853 94.5429 12.376C95.0282 11.2667 95.4442 10.218 95.7909 9.23C95.6696 8.57133 95.5049 7.94733 95.2969 7.358C95.0889 6.75133 94.8029 6.35267 94.4389 6.162C94.6642 5.798 94.9849 5.49467 95.4009 5.252C95.8342 5.00933 96.2676 4.888 96.7009 4.888C97.0476 4.888 97.3509 4.98333 97.6109 5.174C97.8882 5.34733 98.0876 5.65067 98.2089 6.084C98.3649 6.69067 98.4862 7.47933 98.5729 8.45C98.6769 9.40333 98.7636 10.4693 98.8329 11.648C98.9022 12.8267 98.9716 14.0313 99.0409 15.262C99.1276 16.4927 99.2316 17.68 99.3529 18.824C99.4916 19.9507 99.6649 20.9647 99.8729 21.866C100.272 20.8607 100.74 19.76 101.277 18.564C101.832 17.3507 102.395 16.1027 102.967 14.82C103.556 13.5373 104.094 12.2893 104.579 11.076C105.082 9.84533 105.489 8.71867 105.801 7.696C106.113 6.656 106.269 5.78933 106.269 5.096C106.269 4.85333 106.243 4.628 106.191 4.42C106.156 4.212 106.078 4.01267 105.957 3.822C106.2 3.458 106.494 3.21533 106.841 3.094C107.205 2.95533 107.5 2.886 107.725 2.886C108.089 2.886 108.375 2.99 108.583 3.198C108.808 3.38867 108.921 3.72667 108.921 4.212C108.921 4.74933 108.782 5.44267 108.505 6.292C108.245 7.14133 107.898 8.09467 107.465 9.152C107.032 10.2093 106.555 11.3273 106.035 12.506C105.515 13.6673 104.986 14.846 104.449 16.042C103.929 17.238 103.452 18.3907 103.019 19.5C102.586 20.6093 102.23 21.632 101.953 22.568C101.693 23.504 101.563 24.3013 101.563 24.96C101.563 25.1853 101.589 25.3933 101.641 25.584C101.468 25.7573 101.208 25.896 100.861 26C100.514 26.1213 100.22 26.182 99.9769 26.182C99.4569 26.182 99.0236 26.1213 98.6769 26C98.3302 25.8613 98.0356 25.6187 97.7929 25.272C97.5502 24.908 97.3336 24.388 97.1429 23.712C96.9522 23.0187 96.8049 22.1087 96.7009 20.982C96.6142 19.8553 96.5362 18.616 96.4669 17.264C96.4149 15.912 96.3369 14.5513 96.2329 13.182C95.7476 14.2913 95.2536 15.418 94.7509 16.562C94.2656 17.6887 93.8236 18.772 93.4249 19.812C93.0262 20.852 92.7056 21.814 92.4629 22.698C92.2202 23.582 92.0989 24.336 92.0989 24.96C92.0989 25.0813 92.0989 25.194 92.0989 25.298C92.1162 25.402 92.1336 25.4973 92.1509 25.584C91.9949 25.7573 91.7522 25.896 91.4229 26C91.1109 26.1213 90.7989 26.182 90.4869 26.182ZM115.235 26.442C113.762 26.442 112.557 26.1213 111.621 25.48C110.685 24.8387 109.992 23.972 109.541 22.88C109.108 21.788 108.891 20.5833 108.891 19.266C108.891 18.2607 109.012 17.2467 109.255 16.224C109.515 15.184 109.879 14.1873 110.347 13.234C110.815 12.2807 111.396 11.4313 112.089 10.686C112.782 9.92333 113.562 9.32533 114.429 8.892C115.313 8.44133 116.284 8.216 117.341 8.216C118.728 8.216 119.75 8.56267 120.409 9.256C121.068 9.94933 121.397 10.7813 121.397 11.752C121.397 12.5147 121.206 13.3033 120.825 14.118C120.461 14.9153 119.915 15.6607 119.187 16.354C118.476 17.0473 117.61 17.6107 116.587 18.044C115.564 18.4773 114.403 18.694 113.103 18.694C112.635 18.694 112.167 18.668 111.699 18.616C111.734 20.5573 112.098 22.0307 112.791 23.036C113.484 24.024 114.464 24.518 115.729 24.518C116.596 24.518 117.358 24.31 118.017 23.894C118.676 23.4607 119.213 22.7933 119.629 21.892C119.837 22.0827 119.993 22.3167 120.097 22.594C120.201 22.854 120.253 23.1053 120.253 23.348C120.253 23.8853 120.088 24.3533 119.759 24.752C119.43 25.1333 119.005 25.454 118.485 25.714C117.982 25.9567 117.436 26.1387 116.847 26.26C116.275 26.3813 115.738 26.442 115.235 26.442ZM112.921 17.03C114.186 17.03 115.244 16.8047 116.093 16.354C116.942 15.9033 117.584 15.34 118.017 14.664C118.45 13.9707 118.667 13.286 118.667 12.61C118.667 11.934 118.459 11.362 118.043 10.894C117.627 10.4087 116.986 10.166 116.119 10.166C115.339 10.166 114.68 10.3913 114.143 10.842C113.623 11.2753 113.198 11.8473 112.869 12.558C112.54 13.2513 112.288 13.988 112.115 14.768C111.942 15.548 111.82 16.276 111.751 16.952C112.167 17.004 112.557 17.03 112.921 17.03ZM131.225 26.364C130.428 26.364 129.709 26.1993 129.067 25.87C128.426 25.5233 127.88 25.1073 127.429 24.622C127.325 25.2113 127.169 25.6273 126.961 25.87C126.753 26.0953 126.467 26.208 126.103 26.208C125.583 26.208 125.098 25.9827 124.647 25.532C124.769 24.8213 124.899 23.9287 125.037 22.854C125.176 21.762 125.323 20.5747 125.479 19.292C125.635 18.0093 125.783 16.7093 125.921 15.392C126.06 14.0747 126.181 12.8267 126.285 11.648C126.407 10.452 126.502 9.40333 126.571 8.502C126.641 7.60067 126.675 6.92467 126.675 6.474C126.675 5.33 126.641 4.45467 126.571 3.848C126.519 3.224 126.372 2.678 126.129 2.21C126.32 2.03667 126.597 1.898 126.961 1.794C127.325 1.69 127.637 1.638 127.897 1.638C128.487 1.638 128.929 1.83733 129.223 2.236C129.518 2.63467 129.665 3.34533 129.665 4.368C129.665 4.784 129.622 5.39067 129.535 6.188C129.449 6.98533 129.336 7.88667 129.197 8.892C129.059 9.88 128.903 10.8853 128.729 11.908C128.573 12.9307 128.426 13.8927 128.287 14.794C128.149 15.6953 128.036 16.432 127.949 17.004C128.469 15.288 129.085 13.7713 129.795 12.454C130.506 11.1367 131.234 10.1053 131.979 9.36C132.725 8.59733 133.418 8.216 134.059 8.216C134.77 8.216 135.446 8.46733 136.087 8.97C136.729 9.47267 137.249 10.27 137.647 11.362C138.046 12.454 138.245 13.884 138.245 15.652C138.245 16.9 138.107 18.1567 137.829 19.422C137.552 20.6873 137.127 21.8487 136.555 22.906C135.983 23.946 135.255 24.7867 134.371 25.428C133.487 26.052 132.439 26.364 131.225 26.364ZM131.017 24.596C131.988 24.596 132.811 24.232 133.487 23.504C134.163 22.776 134.675 21.7967 135.021 20.566C135.368 19.3353 135.541 17.966 135.541 16.458C135.541 15.4873 135.463 14.586 135.307 13.754C135.169 12.922 134.935 12.2547 134.605 11.752C134.276 11.232 133.851 10.972 133.331 10.972C132.95 10.972 132.517 11.2407 132.031 11.778C131.546 12.298 131.052 13 130.549 13.884C130.064 14.768 129.605 15.7473 129.171 16.822C128.755 17.8967 128.4 18.9973 128.105 20.124C127.828 21.2333 127.663 22.2733 127.611 23.244C128.253 23.712 128.859 24.0587 129.431 24.284C130.003 24.492 130.532 24.596 131.017 24.596Z" fill="white"/>
</g>
</g>
<defs>
<clipPath id="clip0_16824_25">
<rect width="140" height="30" fill="white"/>
</clipPath>
<clipPath id="clip1_16824_25">
<rect width="140" height="30" fill="white"/>
</clipPath>
</defs>
</svg>
