<svg width="120" height="120" viewBox="0 0 120 120" fill="none" xmlns="http://www.w3.org/2000/svg">
<g clip-path="url(#clip0_16822_3)">
<rect width="120" height="120" rx="20" fill="black"/>
<g clip-path="url(#clip1_16822_3)">
<path d="M36.85 93.75C35.9 93.75 34.825 93.475 33.625 92.925C32.475 92.325 31.175 90.925 29.725 88.725C29.175 87.875 28.45 86.6 27.55 84.9C26.65 83.2 25.65 81.25 24.55 79.05C23.45 76.8 22.325 74.5 21.175 72.15C20.075 69.8 19 67.575 17.95 65.475C16.85 65.825 15.75 66.15 14.65 66.45C13.6 66.75 12.575 67.025 11.575 67.275C10.875 72.425 10.525 76.85 10.525 80.55C10.525 82.5 10.675 84.375 10.975 86.175C11.325 87.925 12.125 89.475 13.375 90.825C12.425 91.925 11.475 92.65 10.525 93C9.575 93.35 8.8 93.525 8.2 93.525C6.45 93.525 5.025 92.825 3.925 91.425C2.875 90.025 2.35 87.425 2.35 83.625C2.35 81.825 2.525 79.425 2.875 76.425C3.275 73.425 3.75 70.1 4.3 66.45C4.9 62.8 5.475 59.1 6.025 55.35C6.625 51.55 7.1 47.95 7.45 44.55C7.85 41.1 8.05 38.125 8.05 35.625C8.05 34.575 7.925 33.325 7.675 31.875C7.475 30.375 7.225 29.15 6.925 28.2C9.575 27.7 12.325 27.275 15.175 26.925C18.075 26.525 20.9 26.325 23.65 26.325C27.1 26.325 30.275 26.75 33.175 27.6C36.125 28.45 38.475 29.95 40.225 32.1C41.975 34.2 42.85 37.2 42.85 41.1C42.85 44.65 41.975 47.8 40.225 50.55C38.475 53.3 36.2 55.7 33.4 57.75C30.65 59.75 27.7 61.475 24.55 62.925C26.1 65.925 27.525 68.825 28.825 71.625C30.175 74.425 31.525 76.975 32.875 79.275C34.275 81.525 35.775 83.375 37.375 84.825C38.975 86.275 40.775 87.15 42.775 87.45C42.525 89.2 42.025 90.55 41.275 91.5C40.525 92.4 39.725 93 38.875 93.3C38.025 93.6 37.35 93.75 36.85 93.75ZM12.325 62.1C15.075 61.55 17.775 60.775 20.425 59.775C23.125 58.725 25.575 57.425 27.775 55.875C29.975 54.325 31.725 52.45 33.025 50.25C34.325 48.05 34.975 45.5 34.975 42.6C34.975 39.75 34.375 37.475 33.175 35.775C32.025 34.025 30.45 32.775 28.45 32.025C26.5 31.275 24.3 30.9 21.85 30.9C20.1 30.9 18.325 31.05 16.525 31.35C16.525 33.55 16.3 36.325 15.85 39.675C15.4 42.975 14.85 46.575 14.2 50.475C13.55 54.325 12.925 58.2 12.325 62.1ZM65.2973 93.525C63.0973 93.525 61.3973 93.075 60.1973 92.175C58.9973 91.275 57.9723 89.35 57.1223 86.4C56.6223 84.55 56.2223 82.175 55.9223 79.275C55.6723 76.375 55.4473 73.175 55.2473 69.675C55.0473 66.175 54.8223 62.575 54.5723 58.875C54.3723 55.175 54.0723 51.575 53.6723 48.075C53.2723 44.575 52.7223 41.425 52.0223 38.625C51.5223 36.675 50.7723 34.95 49.7723 33.45C48.7723 31.9 47.4723 30.425 45.8723 29.025C46.4223 28.075 47.2223 27.4 48.2723 27C49.3723 26.55 50.2723 26.325 50.9723 26.325C52.4223 26.325 53.6973 26.575 54.7973 27.075C55.9473 27.525 56.9473 28.425 57.7973 29.775C58.6973 31.075 59.4973 33 60.1973 35.55C60.6973 37.3 61.0723 39.575 61.3223 42.375C61.6223 45.175 61.8723 48.275 62.0723 51.675C62.2723 55.025 62.4723 58.475 62.6723 62.025C62.9223 65.575 63.2223 69 63.5723 72.3C63.9223 75.6 64.4223 78.55 65.0723 81.15C66.0723 78.6 67.2473 75.825 68.5973 72.825C69.9473 69.775 71.3473 66.625 72.7973 63.375C74.2473 60.125 75.6473 56.9 76.9973 53.7C78.3973 50.5 79.5973 47.475 80.5973 44.625C80.2473 42.725 79.7723 40.925 79.1723 39.225C78.5723 37.475 77.7473 36.325 76.6973 35.775C77.3473 34.725 78.2723 33.85 79.4723 33.15C80.7223 32.45 81.9723 32.1 83.2223 32.1C84.2223 32.1 85.0973 32.375 85.8473 32.925C86.6473 33.425 87.2223 34.3 87.5723 35.55C88.0223 37.3 88.3723 39.575 88.6223 42.375C88.9223 45.125 89.1723 48.2 89.3723 51.6C89.5723 55 89.7723 58.475 89.9723 62.025C90.2223 65.575 90.5223 69 90.8723 72.3C91.2723 75.55 91.7723 78.475 92.3723 81.075C93.5223 78.175 94.8723 75 96.4223 71.55C98.0223 68.05 99.6473 64.45 101.297 60.75C102.997 57.05 104.547 53.45 105.947 49.95C107.397 46.4 108.572 43.15 109.472 40.2C110.372 37.2 110.822 34.7 110.822 32.7C110.822 32 110.747 31.35 110.597 30.75C110.497 30.15 110.272 29.575 109.922 29.025C110.622 27.975 111.472 27.275 112.472 26.925C113.522 26.525 114.372 26.325 115.022 26.325C116.072 26.325 116.897 26.625 117.497 27.225C118.147 27.775 118.472 28.75 118.472 30.15C118.472 31.7 118.072 33.7 117.272 36.15C116.522 38.6 115.522 41.35 114.272 44.4C113.022 47.45 111.647 50.675 110.147 54.075C108.647 57.425 107.122 60.825 105.572 64.275C104.072 67.725 102.697 71.05 101.447 74.25C100.197 77.45 99.1723 80.4 98.3723 83.1C97.6223 85.8 97.2473 88.1 97.2473 90C97.2473 90.65 97.3223 91.25 97.4723 91.8C96.9723 92.3 96.2223 92.7 95.2223 93C94.2223 93.35 93.3723 93.525 92.6723 93.525C91.1723 93.525 89.9223 93.35 88.9223 93C87.9223 92.6 87.0723 91.9 86.3723 90.9C85.6723 89.85 85.0473 88.35 84.4973 86.4C83.9473 84.4 83.5223 81.775 83.2223 78.525C82.9723 75.275 82.7473 71.7 82.5473 67.8C82.3973 63.9 82.1723 59.975 81.8723 56.025C80.4723 59.225 79.0473 62.475 77.5973 65.775C76.1973 69.025 74.9223 72.15 73.7723 75.15C72.6223 78.15 71.6973 80.925 70.9973 83.475C70.2973 86.025 69.9473 88.2 69.9473 90C69.9473 90.35 69.9473 90.675 69.9473 90.975C69.9973 91.275 70.0473 91.55 70.0973 91.8C69.6473 92.3 68.9473 92.7 67.9973 93C67.0973 93.35 66.1973 93.525 65.2973 93.525Z" fill="white"/>
</g>
</g>
<defs>
<clipPath id="clip0_16822_3">
<rect width="120" height="120" rx="20" fill="white"/>
</clipPath>
<clipPath id="clip1_16822_3">
<rect width="120" height="120" fill="white"/>
</clipPath>
</defs>
</svg>
